<?xml version="1.0" encoding="UTF-8"?> <svg xmlns="http://www.w3.org/2000/svg" width="250" height="55" viewBox="0 0 250 55" fill="none"><path d="M96.9798 0.0236709C103.617 0.739498 103.01 10.5206 96.4987 10.4518C90.1766 10.3831 89.6268 0.882663 96.0177 0.0236709C96.2639 -0.0106888 96.7278 -0.00496218 96.9798 0.0236709Z" fill="white"></path><path d="M250 37.7109L247.251 38.5355C247.057 38.7417 248.855 40.5455 248.775 41.0495C248.752 41.1926 246.742 42.5212 246.433 42.6415C246.272 42.2692 244.978 40.4024 244.726 40.4596C244.423 40.5226 243.277 42.7159 242.939 42.6415L240.786 41.0552C240.763 40.5742 242.521 38.7703 242.309 38.5355C241.679 38.3351 240.465 38.1346 239.933 37.8254C239.784 37.7395 239.71 37.7223 239.704 37.5162C239.704 37.2756 240.46 35.1682 240.614 35.1167L243.271 35.7924V32.912H246.295V35.7924L248.952 35.1167C249.273 35.2198 249.68 37.2126 250 37.5734V37.7109Z" fill="#03C2FE"></path><path d="M125.825 16.7394V13.9963H134.203V41.0603C133.556 47.2451 130.068 52.2158 123.9 53.8078C116.049 55.835 106.32 52.8457 104.527 44.147L112.27 42.0796C113.455 46.2486 117.676 47.6459 121.598 46.3059C123.763 45.5672 125.544 43.0761 125.544 40.7854V38.386C121.369 42.8527 113.638 42.0396 109.263 38.2543C101.235 31.3022 103.823 16.7107 114.389 13.899C118.306 12.8567 123.167 13.4065 125.819 16.7394H125.825ZM118.93 21.1661C111.531 21.8532 111.628 33.0946 118.752 33.7302C128.092 34.5663 127.628 20.3586 118.93 21.1661Z" fill="white"></path><path d="M202.859 13.0808C222.977 12.2504 224.208 42.1205 204.743 43.4605C183.956 44.8921 182.409 13.9226 202.859 13.0808ZM202.304 21.3042C195.689 22.1002 195.163 33.2442 201.588 35.0996C205.791 36.3137 209.536 33.5592 209.886 29.2814C210.292 24.3279 207.543 20.6743 202.304 21.3042Z" fill="white"></path><path d="M164.147 42.6411H156.387C156.004 42.6411 156.009 40.0297 155.838 39.6289C150.455 47.1307 136.081 42.9389 138.108 32.9058C139.671 25.1577 147.975 26.4748 153.598 24.9229C156.175 24.2128 155.494 21.3839 153.484 20.4562C150.775 19.2078 147.488 20.2557 146.417 23.1019C146.297 23.4168 146.343 24.0353 146.062 24.1269L138.589 22.5407C139.116 17.1004 143.961 13.7847 149.103 13.1776C156.445 12.3129 163.311 15.3366 163.866 23.3882C164.239 28.7598 163.62 34.5494 163.866 39.9725C163.906 40.8257 164.153 41.7706 164.147 42.6411ZM155.219 30.1685C152.293 30.8901 145.53 30.1971 146.795 35.0762C147.471 37.6761 151.697 37.3497 153.438 35.9925C154.211 35.3912 155.219 33.6675 155.219 32.6997V30.1628V30.1685Z" fill="white"></path><path d="M56.8706 42.6413H49.1111C48.9565 42.521 48.7675 41.7708 48.7675 41.6162V39.4916C43.1783 47.2913 28.4037 42.8761 31.0093 32.3963C32.8418 25.0147 41.2771 26.5266 46.5742 24.9002C49.0882 24.1271 48.046 21.1149 45.9214 20.3361C42.9378 19.248 39.1869 20.7026 39.0151 24.1443L31.4045 22.6496C30.8776 22.3003 32.4238 18.956 32.7788 18.3948C37.3086 11.1964 52.0775 11.0647 55.6165 19.1564C57.5636 23.606 56.3839 33.9769 56.59 39.2855C56.6359 40.3678 56.9222 41.536 56.8706 42.6355V42.6413ZM48.0746 30.1687C46.3852 30.3806 44.6272 30.5581 42.9665 30.896C41.5176 31.188 39.8283 31.6347 39.4847 33.3126C38.5226 38.0142 45.7668 38.1974 47.4561 34.4121C47.6336 34.0113 48.0746 32.5281 48.0746 32.1558V30.1687Z" fill="white"></path><path d="M27.0582 42.6411H18.3366C18.3366 42.6411 18.1304 42.4521 18.1304 42.4349V24.7569C18.1304 24.4648 17.4948 23.1591 17.2829 22.8613C15.7825 20.7654 12.003 20.7024 10.2277 22.4891C9.79821 22.9243 8.92777 24.4648 8.92777 25.0317V42.4349C8.92777 42.4349 8.73879 42.6411 8.72161 42.6411H0.206158C0.206158 42.6411 0 42.4521 0 42.4349V14.0023H8.51546V17.0145C9.8383 15.4225 11.436 14.2371 13.4632 13.6587C20.0775 11.7574 26.0732 15.4797 26.9093 22.3059C27.2529 29.0633 26.9723 35.8665 27.0639 42.6411H27.0582Z" fill="white"></path><path d="M67.0354 14.0026L73.4893 31.5433L79.737 14.0026H88.871L78.0935 42.5097L77.6869 42.6472L69.2287 42.5727L57.4148 14.0026H67.0354Z" fill="white"></path><path d="M180.221 5.64152V14.0024H185.851V21.676H180.221V32.5681C180.221 32.6253 180.387 33.49 180.422 33.5989C181.109 35.8609 183.915 35.208 185.713 35.0992V42.3606C184.871 42.6011 184.035 42.9046 183.153 43.0306C178.767 43.6433 173.934 42.1888 172.244 37.7736C172.038 37.2353 171.563 35.6719 171.563 35.1679V21.6703H166.478V13.9967H168.47C170.349 13.9967 172.387 11.9637 172.387 10.0911V5.63579H180.216L180.221 5.64152Z" fill="white"></path><path d="M240.661 22.6324C236.979 21.8536 233.142 22.5236 231.727 26.4005C231.573 26.8243 231.183 28.0842 231.183 28.4564V42.6412H222.256V14.0024H230.908V17.4269L232.077 15.9208C233.468 14.7411 235.301 13.8707 237.156 13.7218C237.597 13.6874 240.667 13.6645 240.667 14.0711V22.6381L240.661 22.6324Z" fill="white"></path><path d="M100.96 14.0026H92.1696V42.6414H100.96V14.0026Z" fill="white"></path></svg> 